<svg width="493.670898" height="378.316895" viewBox="0 0 493.671 378.317" fill="none" xmlns="http://www.w3.org/2000/svg" xmlns:xlink="http://www.w3.org/1999/xlink">
	<desc>
			Created with Pixso.
	</desc>
	<defs>
		<clipPath id="clip83_731">
			<rect id="picture" rx="0.000000" width="492.670898" height="377.316895" transform="translate(0.500000 0.500000)" fill="white" fill-opacity="0"/>
		</clipPath>
	</defs>
	<rect id="picture" rx="0.000000" width="492.670898" height="377.316895" transform="translate(0.500000 0.500000)" fill="#FFFFFF" fill-opacity="0"/>
	<g clip-path="url(#clip83_731)">
		<path id="Vector" d="M452.25 162.49C447.38 143.66 439.9 125.72 429.79 109.17C412.07 80.11 380.76 36.01 345.2 18.82C290.31 -7.71 240.41 -8.98 195.49 32.72C150.58 74.42 123.13 193.2 106.91 213.41C90.69 233.63 42.04 237.42 23.32 269.01C4.61 300.6 10.47 375.15 10.47 375.15L477.45 375.15C477.45 375.15 483.94 285.69 452.25 162.49Z" fill="#C6FF00" fill-opacity="1.000000" fill-rule="nonzero"/>
		<g opacity="0.800000">
			<path id="Vector" d="M452.25 162.49C447.38 143.66 439.9 125.72 429.79 109.17C412.07 80.11 380.76 36.01 345.2 18.82C290.31 -7.71 240.41 -8.98 195.49 32.72C150.58 74.42 123.13 193.2 106.91 213.41C90.69 233.63 42.04 237.42 23.32 269.01C4.61 300.6 10.47 375.15 10.47 375.15L477.45 375.15C477.45 375.15 483.94 285.69 452.25 162.49Z" fill="#FFFFFF" fill-opacity="1.000000" fill-rule="nonzero"/>
		</g>
		<path id="Vector" d="M413.82 117.13C408.21 114.1 405.71 116.62 403.72 114.1C401.72 111.57 409.33 104.87 394.11 98.18C394.11 98.18 393.11 83.77 372.4 83.27C351.69 82.76 357.18 97.67 351.69 101.21C346.08 104.75 344.58 99.19 339.09 102.72C333.48 106.26 336.1 113.47 331.48 114.48C326.99 115.49 320.88 109.93 315.26 113.47C309.65 117 309.65 120.16 307.15 120.16C304.66 120.16 299.54 118.14 296.55 120.16C293.55 122.18 289.94 124.71 289.94 124.71L417.94 124.71C417.81 124.84 419.43 120.29 413.82 117.13Z" fill="#FFFFFF" fill-opacity="1.000000" fill-rule="nonzero"/>
		<g opacity="0.500000">
			<path id="Vector" d="M413.82 117.13C408.21 114.1 405.71 116.62 403.72 114.1C401.72 111.57 409.33 104.87 394.11 98.18C394.11 98.18 393.11 83.77 372.4 83.27C351.69 82.76 357.18 97.67 351.69 101.21C346.08 104.75 344.58 99.19 339.09 102.72C333.48 106.26 336.1 113.47 331.48 114.48C326.99 115.49 320.88 109.93 315.26 113.47C309.65 117 309.65 120.16 307.15 120.16C304.66 120.16 299.54 118.14 296.55 120.16C293.55 122.18 289.94 124.71 289.94 124.71L417.94 124.71C417.81 124.84 419.43 120.29 413.82 117.13Z" fill="#FFFFFF" fill-opacity="1.000000" fill-rule="nonzero"/>
		</g>
		<path id="Vector" d="M261.24 39.04C258 37.27 256.5 38.79 255.25 37.27C254 35.75 258.5 31.84 249.51 27.92C249.51 27.92 248.89 19.45 236.66 19.08C224.31 18.82 227.68 27.54 224.31 29.69C221.07 31.84 220.07 28.43 216.83 30.57C213.58 32.72 215.08 36.89 212.34 37.52C209.59 38.16 206.1 34.74 202.73 36.89C199.49 39.04 199.49 40.81 197.99 40.81C196.49 40.81 193.5 39.55 191.75 40.81C190 42.07 187.88 43.59 187.88 43.59L263.74 43.59C263.61 43.59 264.48 40.81 261.24 39.04Z" fill="#FFFFFF" fill-opacity="1.000000" fill-rule="nonzero"/>
		<g opacity="0.500000">
			<path id="Vector" d="M261.24 39.04C258 37.27 256.5 38.79 255.25 37.27C254 35.75 258.5 31.84 249.51 27.92C249.51 27.92 248.89 19.45 236.66 19.08C224.31 18.82 227.68 27.54 224.31 29.69C221.07 31.84 220.07 28.43 216.83 30.57C213.58 32.72 215.08 36.89 212.34 37.52C209.59 38.16 206.1 34.74 202.73 36.89C199.49 39.04 199.49 40.81 197.99 40.81C196.49 40.81 193.5 39.55 191.75 40.81C190 42.07 187.88 43.59 187.88 43.59L263.74 43.59C263.61 43.59 264.48 40.81 261.24 39.04Z" fill="#FFFFFF" fill-opacity="1.000000" fill-rule="nonzero"/>
		</g>
		<path id="Vector" d="M222.69 169.69C219.45 167.93 217.95 169.44 216.7 167.93C215.45 166.41 219.95 162.49 210.96 158.58C210.96 158.58 210.34 150.11 198.11 149.73C185.76 149.48 189.13 158.2 185.76 160.34C182.52 162.49 181.52 159.08 178.28 161.23C175.03 163.38 176.53 167.55 173.78 168.18C171.04 168.81 167.55 165.4 164.18 167.55C160.93 169.69 160.93 171.46 159.44 171.46C157.94 171.46 154.95 170.2 153.2 171.46C151.45 172.73 149.33 174.24 149.33 174.24L225.19 174.24C225.06 174.24 226.06 171.59 222.69 169.69Z" fill="#FFFFFF" fill-opacity="1.000000" fill-rule="nonzero"/>
		<g opacity="0.500000">
			<path id="Vector" d="M222.69 169.69C219.45 167.93 217.95 169.44 216.7 167.93C215.45 166.41 219.95 162.49 210.96 158.58C210.96 158.58 210.34 150.11 198.11 149.73C185.76 149.48 189.13 158.2 185.76 160.34C182.52 162.49 181.52 159.08 178.28 161.23C175.03 163.38 176.53 167.55 173.78 168.18C171.04 168.81 167.55 165.4 164.18 167.55C160.93 169.69 160.93 171.46 159.44 171.46C157.94 171.46 154.95 170.2 153.2 171.46C151.45 172.73 149.33 174.24 149.33 174.24L225.19 174.24C225.06 174.24 226.06 171.59 222.69 169.69Z" fill="#FFFFFF" fill-opacity="1.000000" fill-rule="nonzero"/>
		</g>
		<path id="Vector" d="M15.22 374.77L165.05 183.85C168.67 179.3 175.53 179.3 179.02 184.1L272.34 310.33L359.68 165.52C363.17 159.59 371.78 159.84 375.02 165.9L487.05 373.76L15.22 374.77Z" fill="#C6FF00" fill-opacity="1.000000" fill-rule="nonzero"/>
		<g opacity="0.500000">
			<path id="Vector" d="M15.22 374.77L165.05 183.85C168.67 179.3 175.53 179.3 179.02 184.1L272.34 310.33L359.68 165.52C363.17 159.59 371.78 159.84 375.02 165.9L487.05 373.76L15.22 374.77Z" fill="#FFFFFF" fill-opacity="1.000000" fill-rule="nonzero"/>
		</g>
		<mask id="mask83_749" mask-type="alpha" maskUnits="userSpaceOnUse" x="15.220581" y="161.214355" width="471.838043" height="213.564529">
			<path id="Vector" d="M15.22 374.77L165.05 183.85C168.67 179.3 175.53 179.3 179.02 184.1L272.34 310.33L359.68 165.52C363.17 159.59 371.78 159.84 375.02 165.9L487.05 373.76L15.22 374.77Z" fill="#000000" fill-opacity="1.000000" fill-rule="nonzero"/>
		</mask>
		<g mask="url(#mask83_749)">
			<g opacity="0.200000">
				<path id="Vector" d="M175.28 181.19L225.93 374.4L320.63 374.27L179.15 184.1C178.15 182.71 176.78 181.7 175.28 181.19Z" fill="#000000" fill-opacity="1.000000" fill-rule="nonzero"/>
				<path id="Vector" d="M375.15 166.03C373.27 162.62 369.91 161.1 366.54 161.36L440.39 373.89L487.18 373.76L375.15 166.03Z" fill="#000000" fill-opacity="1.000000" fill-rule="nonzero"/>
			</g>
		</g>
		<mask id="mask83_755" mask-type="alpha" maskUnits="userSpaceOnUse" x="15.220581" y="161.214355" width="471.838043" height="213.564529">
			<path id="Vector" d="M15.22 374.77L165.05 183.85C168.67 179.3 175.53 179.3 179.02 184.1L272.34 310.33L359.68 165.52C363.17 159.59 371.78 159.84 375.02 165.9L487.05 373.76L15.22 374.77Z" fill="#000000" fill-opacity="1.000000" fill-rule="nonzero"/>
		</mask>
		<g mask="url(#mask83_755)">
			<g opacity="0.200000">
				<path id="Vector" d="M109.03 373.64L114.77 340.91L93.94 373.64L109.03 373.64Z" fill="#000000" fill-opacity="1.000000" fill-rule="nonzero"/>
			</g>
		</g>
		<path id="Vector" d="M376.39 374.27L440.64 374.27C439.4 366.31 434.41 367.7 433.66 355.32C433.28 349.12 439.02 341.42 438.52 333.2C438.15 326.51 431.54 319.56 431.04 311.85C430.54 304.9 436.15 297.19 435.65 289.74C435.15 282.66 428.54 275.84 427.92 268.51C427.29 261.3 432.78 253.6 432.16 246.27C431.54 239.07 424.8 232.37 424.05 225.17C423.3 217.84 428.67 209.88 427.79 202.93C426.92 195.47 419.93 189.03 419.06 182.08C418.06 174.37 422.93 166.28 421.81 159.59C420.43 151.5 412.95 145.56 411.33 139.62C408.46 128.5 408.83 117.76 405.34 117C401.59 116.25 400.85 126.73 397.98 138.48C396.6 144.42 389.24 150.36 388.12 158.45C387.12 165.02 392.24 172.98 391.49 180.56C390.74 187.38 384 193.96 383.25 201.41C382.63 208.36 388.12 216.07 387.62 223.4C387.12 230.47 380.51 237.3 380.01 244.5C379.51 251.7 385.25 259.28 384.88 266.36C384.5 273.69 378.01 280.51 377.64 287.59C377.27 295.04 383.13 302.5 382.76 309.45C382.51 317.03 376.02 324.1 375.89 330.8C375.64 338.89 381.51 346.34 381.26 352.54C380.88 365.93 374.77 363.15 374.65 373.89L376.39 374.27Z" fill="#BAEF00" fill-opacity="1.000000" fill-rule="nonzero"/>
		<path id="Vector" d="" fill="#BAEF00" fill-opacity="1.000000" fill-rule="nonzero"/>
		<path id="Vector" d="M403.96 138.74L403.96 371.24" stroke="#263238" stroke-opacity="1.000000" stroke-width="1.000000"/>
		<path id="Vector" d="M413.95 163.12L403.47 172.22L394.98 160.72" fill="#BAEF00" fill-opacity="1.000000" fill-rule="nonzero"/>
		<path id="Vector" d="M413.95 163.12L403.47 172.22L394.98 160.72" stroke="#263238" stroke-opacity="1.000000" stroke-width="1.000000"/>
		<path id="Vector" d="M413.95 203.56L403.47 212.66L394.98 201.16" fill="#BAEF00" fill-opacity="1.000000" fill-rule="nonzero"/>
		<path id="Vector" d="M413.95 203.56L403.47 212.66L394.98 201.16" stroke="#263238" stroke-opacity="1.000000" stroke-width="1.000000"/>
		<path id="Vector" d="M413.95 241.59L403.47 250.82L394.98 239.19" fill="#BAEF00" fill-opacity="1.000000" fill-rule="nonzero"/>
		<path id="Vector" d="M413.95 241.59L403.47 250.82L394.98 239.19" stroke="#263238" stroke-opacity="1.000000" stroke-width="1.000000"/>
		<path id="Vector" d="M413.95 286.96L403.47 296.05L394.98 284.55" fill="#BAEF00" fill-opacity="1.000000" fill-rule="nonzero"/>
		<path id="Vector" d="M413.95 286.96L403.47 296.05L394.98 284.55" stroke="#263238" stroke-opacity="1.000000" stroke-width="1.000000"/>
		<path id="Vector" d="M413.95 332.7L403.47 341.79L394.98 330.3" fill="#BAEF00" fill-opacity="1.000000" fill-rule="nonzero"/>
		<path id="Vector" d="M413.95 332.7L403.47 341.79L394.98 330.3" stroke="#263238" stroke-opacity="1.000000" stroke-width="1.000000"/>
		<path id="Vector" d="M308.77 374.27L364.54 374.27C363.42 367.32 359.05 368.58 358.55 357.84C358.3 352.41 363.17 345.84 362.79 338.76C362.42 332.95 356.81 327.01 356.31 320.31C355.93 314.25 360.8 307.55 360.3 301.11C359.8 294.92 354.06 289.1 353.56 282.66C353.06 276.47 357.8 269.64 357.3 263.45C356.81 257.13 350.94 251.32 350.32 245.13C349.69 238.81 354.31 231.86 353.56 225.8C352.81 219.35 346.83 213.79 345.95 207.73C345.08 201.03 349.32 193.96 348.32 188.27C347.07 181.19 340.59 176.14 339.34 170.96C336.84 161.36 337.09 152 334.1 151.37C330.86 150.74 330.23 159.84 327.74 170.07C326.49 175.25 320.25 180.44 319.13 187.38C318.26 193.07 322.75 200.02 322 206.59C321.37 212.53 315.51 218.22 314.89 224.66C314.39 230.73 319.13 237.42 318.63 243.74C318.13 249.93 312.52 255.74 312.02 262.06C311.64 268.25 316.51 274.82 316.26 281.02C315.88 287.33 310.27 293.27 310.02 299.46C309.77 305.91 314.76 312.35 314.51 318.42C314.26 324.99 308.77 331.05 308.52 336.87C308.27 343.94 313.39 350.39 313.26 355.69C312.89 367.32 307.65 364.92 307.53 374.27L308.77 374.27Z" fill="#BAEF00" fill-opacity="1.000000" fill-rule="nonzero"/>
		<path id="Vector" d="" fill="#BAEF00" fill-opacity="1.000000" fill-rule="nonzero"/>
		<path id="Vector" d="M332.6 169.95L332.6 371.62" stroke="#263238" stroke-opacity="1.000000" stroke-width="1.000000"/>
		<path id="Vector" d="M341.34 191.18L332.23 199.01L324.87 189.03" fill="#BAEF00" fill-opacity="1.000000" fill-rule="nonzero"/>
		<path id="Vector" d="M341.34 191.18L332.23 199.01L324.87 189.03" stroke="#263238" stroke-opacity="1.000000" stroke-width="1.000000"/>
		<path id="Vector" d="M341.34 226.18L332.23 234.14L324.87 224.16" fill="#BAEF00" fill-opacity="1.000000" fill-rule="nonzero"/>
		<path id="Vector" d="M341.34 226.18L332.23 234.14L324.87 224.16" stroke="#263238" stroke-opacity="1.000000" stroke-width="1.000000"/>
		<path id="Vector" d="M341.34 259.28L332.23 267.24L324.87 257.13" fill="#BAEF00" fill-opacity="1.000000" fill-rule="nonzero"/>
		<path id="Vector" d="M341.34 259.28L332.23 267.24L324.87 257.13" stroke="#263238" stroke-opacity="1.000000" stroke-width="1.000000"/>
		<path id="Vector" d="M341.34 298.58L332.23 306.41L324.87 296.43" fill="#BAEF00" fill-opacity="1.000000" fill-rule="nonzero"/>
		<path id="Vector" d="M341.34 298.58L332.23 306.41L324.87 296.43" stroke="#263238" stroke-opacity="1.000000" stroke-width="1.000000"/>
		<path id="Vector" d="M341.34 338.26L332.23 346.22L324.87 336.11" fill="#BAEF00" fill-opacity="1.000000" fill-rule="nonzero"/>
		<path id="Vector" d="M341.34 338.26L332.23 346.22L324.87 336.11" stroke="#263238" stroke-opacity="1.000000" stroke-width="1.000000"/>
		<path id="Vector" d="M32.06 374.27L87.83 374.27C86.7 367.32 82.34 368.58 81.84 357.84C81.59 352.41 86.45 345.84 86.08 338.76C85.7 332.95 80.09 327.01 79.59 320.31C79.22 314.25 84.08 307.55 83.58 301.11C83.08 294.92 77.35 289.1 76.85 282.66C76.35 276.47 81.09 269.64 80.59 263.45C80.09 257.13 74.23 251.32 73.6 245.13C72.98 238.81 77.6 231.86 76.85 225.8C76.1 219.35 70.11 213.79 69.24 207.73C68.36 201.03 72.6 193.96 71.61 188.27C70.36 181.19 63.87 176.14 62.62 170.96C60.13 161.36 60.38 152 57.38 151.37C54.14 150.74 53.52 159.84 51.02 170.07C49.77 175.25 43.54 180.44 42.41 187.38C41.54 193.07 46.03 200.02 45.28 206.59C44.66 212.53 38.8 218.22 38.17 224.66C37.67 230.73 42.41 237.42 41.91 243.74C41.41 249.93 35.8 255.74 35.3 262.06C34.93 268.25 39.79 274.82 39.54 281.02C39.17 287.33 33.56 293.27 33.31 299.46C33.06 305.91 38.05 312.35 37.8 318.42C37.55 324.99 32.06 331.05 31.81 336.87C31.56 343.94 36.67 350.39 36.55 355.69C36.18 367.32 30.94 364.92 30.81 374.27L32.06 374.27Z" fill="#BAEF00" fill-opacity="1.000000" fill-rule="nonzero"/>
		<path id="Vector" d="M56.01 169.95L56.01 371.62" stroke="#263238" stroke-opacity="1.000000" stroke-width="1.000000"/>
		<path id="Vector" d="M64.74 191.18L55.64 199.01L48.15 189.03" stroke="#263238" stroke-opacity="1.000000" stroke-width="1.000000"/>
		<path id="Vector" d="M64.74 226.18L55.64 234.14L48.15 224.16" stroke="#263238" stroke-opacity="1.000000" stroke-width="1.000000"/>
		<path id="Vector" d="M64.74 259.28L55.64 267.24L48.15 257.13" stroke="#263238" stroke-opacity="1.000000" stroke-width="1.000000"/>
		<path id="Vector" d="M64.74 298.58L55.64 306.41L48.15 296.43" stroke="#263238" stroke-opacity="1.000000" stroke-width="1.000000"/>
		<path id="Vector" d="M64.74 338.26L55.64 346.22L48.15 336.11" stroke="#263238" stroke-opacity="1.000000" stroke-width="1.000000"/>
		<path id="Vector" d="M369.15 315.66C375.13 341.77 359.09 367.84 333.32 373.89C307.54 379.95 281.8 363.7 275.82 337.59C269.84 311.49 285.89 285.42 311.66 279.36C337.43 273.31 363.17 289.56 369.15 315.66Z" fill="#263238" fill-opacity="1.000000" fill-rule="evenodd"/>
		<path id="Vector" d="M361.94 310.49C370.75 332.55 360.23 357.67 338.44 366.59C316.66 375.5 291.86 364.85 283.06 342.79C274.25 320.73 284.77 295.61 306.55 286.69C328.34 277.77 353.13 288.43 361.94 310.49Z" fill="#FFFFFF" fill-opacity="1.000000" fill-rule="evenodd"/>
		<path id="Vector" d="M322.5 364.16C337.72 364.16 350.69 354.94 356.43 341.67" stroke="#263238" stroke-opacity="1.000000" stroke-width="1.000000" stroke-linejoin="round" stroke-linecap="round"/>
		<path id="Vector" d="M322.5 288.98C308.52 288.98 296.42 296.68 290.06 308.18" stroke="#263238" stroke-opacity="1.000000" stroke-width="1.000000" stroke-linejoin="round" stroke-linecap="round"/>
		<path id="Vector" d="M322.5 292.77C309.9 292.77 299.04 299.72 293.3 310.08" stroke="#263238" stroke-opacity="1.000000" stroke-width="1.000000" stroke-linejoin="round" stroke-linecap="round"/>
		<path id="Vector" d="M321.87 360.37C322.12 360.37 322.25 360.37 322.5 360.37C336.22 360.37 347.95 352.03 353.19 340.03" stroke="#263238" stroke-opacity="1.000000" stroke-width="1.000000" stroke-linejoin="round" stroke-linecap="round"/>
		<path id="Vector" d="M322.5 296.94C311.52 296.94 301.91 303.13 296.92 312.23" stroke="#263238" stroke-opacity="1.000000" stroke-width="1.000000" stroke-linejoin="round" stroke-linecap="round"/>
		<path id="Vector" d="M322.5 356.2C334.35 356.2 344.7 349 349.2 338.64" stroke="#263238" stroke-opacity="1.000000" stroke-width="1.000000" stroke-linejoin="round" stroke-linecap="round"/>
		<path id="Vector" d="M322.5 301.61C313.26 301.61 305.16 306.79 300.91 314.38" stroke="#263238" stroke-opacity="1.000000" stroke-width="1.000000" stroke-linejoin="round" stroke-linecap="round"/>
		<path id="Vector" d="M322.5 351.65C332.35 351.65 340.84 345.84 344.83 337.25" stroke="#263238" stroke-opacity="1.000000" stroke-width="1.000000" stroke-linejoin="round" stroke-linecap="round"/>
		<path id="Vector" d="M204.57 292.33C223.27 311.28 223.27 342 204.57 360.95C185.86 379.9 155.52 379.9 136.82 360.95C118.11 342 118.11 311.28 136.82 292.33C155.52 273.38 185.86 273.38 204.57 292.33Z" fill="#263238" fill-opacity="1.000000" fill-rule="evenodd"/>
		<path id="Vector" d="M187.34 286.98C208.97 296.28 219.06 321.57 209.88 343.48C200.69 365.38 175.72 375.6 154.09 366.3C132.46 357 122.37 331.71 131.56 309.8C140.74 287.9 165.71 277.68 187.34 286.98Z" fill="#FFFFFF" fill-opacity="1.000000" fill-rule="evenodd"/>
		<path id="Vector" d="M170.67 364.16C185.89 364.16 198.86 354.94 204.6 341.67" stroke="#263238" stroke-opacity="1.000000" stroke-width="1.000000" stroke-linejoin="round" stroke-linecap="round"/>
		<path id="Vector" d="M170.67 288.98C156.69 288.98 144.59 296.68 138.23 308.18" stroke="#263238" stroke-opacity="1.000000" stroke-width="1.000000" stroke-linejoin="round" stroke-linecap="round"/>
		<path id="Vector" d="M170.67 292.77C158.06 292.77 147.21 299.72 141.47 310.08" stroke="#263238" stroke-opacity="1.000000" stroke-width="1.000000" stroke-linejoin="round" stroke-linecap="round"/>
		<path id="Vector" d="M170.04 360.37C170.29 360.37 170.42 360.37 170.67 360.37C184.39 360.37 196.12 352.03 201.36 340.03" stroke="#263238" stroke-opacity="1.000000" stroke-width="1.000000" stroke-linejoin="round" stroke-linecap="round"/>
		<path id="Vector" d="M170.67 296.94C159.69 296.94 150.08 303.13 145.09 312.23" stroke="#263238" stroke-opacity="1.000000" stroke-width="1.000000" stroke-linejoin="round" stroke-linecap="round"/>
		<path id="Vector" d="M170.67 356.2C182.52 356.2 192.87 349 197.36 338.64" stroke="#263238" stroke-opacity="1.000000" stroke-width="1.000000" stroke-linejoin="round" stroke-linecap="round"/>
		<path id="Vector" d="M170.67 301.61C161.43 301.61 153.32 306.79 149.08 314.38" stroke="#263238" stroke-opacity="1.000000" stroke-width="1.000000" stroke-linejoin="round" stroke-linecap="round"/>
		<path id="Vector" d="M170.67 351.65C180.52 351.65 189.01 345.84 193 337.25" stroke="#263238" stroke-opacity="1.000000" stroke-width="1.000000" stroke-linejoin="round" stroke-linecap="round"/>
		<path id="Vector" d="M283.95 166.41L278.21 140.5C278.21 140.5 271.35 137.98 265.86 141.01C261.37 143.54 245.52 165.9 240.16 173.61C239.91 173.36 239.78 173.23 239.78 173.23C239.78 173.23 239.16 172.22 238.41 173.23C238.41 173.23 234.67 176.64 234.79 177.78C234.79 178.03 235.42 178.79 236.16 179.8L205.35 211.39C205.35 211.39 196.99 211.52 195.49 212.28C194 213.04 194 213.16 194 216.07C194 218.85 194.37 221.5 194.87 221.63C195.37 221.75 198.74 222.51 199.11 221.5C199.48 220.36 198.24 218.34 198.24 218.34C198.24 218.34 199.11 215.94 200.98 216.7C202.85 217.46 204.35 219.86 206.72 218.97C209.09 218.09 211.21 214.05 211.21 214.05L244.52 189.03C245.52 190.04 246.27 190.8 246.52 190.92C247.77 191.68 251.88 188.52 251.76 187.01L251.76 186.88L283.95 166.41Z" fill="#263238" fill-opacity="1.000000" fill-rule="nonzero"/>
		<path id="Vector" d="M204.48 234.01C203.85 234.01 203.35 233.76 203.1 233.13L195.37 219.35C194.87 218.6 195.24 217.58 195.99 217.08C196.74 216.57 197.74 216.95 198.24 217.71L205.97 231.48C206.47 232.24 206.1 233.25 205.35 233.76C204.97 233.88 204.72 234.01 204.48 234.01Z" fill="#FFFFFF" fill-opacity="1.000000" fill-rule="nonzero"/>
		<path id="Vector" d="M203.1 233.13L195.37 219.35C194.87 218.6 195.24 217.58 195.99 217.08C196.74 216.57 197.74 216.95 198.24 217.71L205.97 231.48C206.47 232.24 206.1 233.25 205.35 233.76C204.97 233.88 204.72 234.01 204.48 234.01C203.85 234.01 203.35 233.76 203.1 233.13Z" stroke="#263238" stroke-opacity="1.000000" stroke-width="1.000000" stroke-linejoin="round"/>
		<path id="Vector" d="M232.67 178.29L200.73 211.14C200.73 211.14 192.37 211.27 190.88 212.02C189.38 212.78 189.38 212.91 189.38 215.82C189.38 218.6 189.75 221.25 190.25 221.38C190.75 221.5 194.12 222.26 194.49 221.25C194.87 220.11 193.62 218.09 193.62 218.09C193.62 218.09 194.49 215.69 196.37 216.45C198.24 217.21 199.73 219.61 202.1 218.72C204.48 217.84 206.6 213.79 206.6 213.79L241.28 187.76L232.67 178.29Z" fill="#FFFFFF" fill-opacity="1.000000" fill-rule="nonzero"/>
		<path id="Vector" d="M200.73 211.14C200.73 211.14 192.37 211.27 190.88 212.02C189.38 212.78 189.38 212.91 189.38 215.82C189.38 218.6 189.75 221.25 190.25 221.38C190.75 221.5 194.12 222.26 194.49 221.25C194.87 220.11 193.62 218.09 193.62 218.09C193.62 218.09 194.49 215.69 196.37 216.45C198.24 217.21 199.73 219.61 202.1 218.72C204.48 217.84 206.6 213.79 206.6 213.79L241.28 187.76L232.67 178.29L200.73 211.14Z" stroke="#263238" stroke-opacity="1.000000" stroke-width="1.000000" stroke-linejoin="round"/>
		<path id="Vector" d="M200.61 218.22C200.61 216.07 198.86 214.3 196.74 214.3C194.62 214.3 192.87 216.07 192.87 218.22C192.87 220.36 194.62 222.13 196.74 222.13C198.86 222.01 200.61 220.36 200.61 218.22Z" fill="#263238" fill-opacity="1.000000" fill-rule="nonzero"/>
		<path id="Vector" d="M301.04 221.75C301.04 221.75 296.05 224.28 290.06 224.79C284.07 225.29 279.95 224.53 281.33 228.96C282.7 233.38 292.06 234.26 298.92 232.62C305.78 230.98 309.02 228.45 308.27 224.03C307.28 219.48 303.16 220.87 301.04 221.75Z" fill="#263238" fill-opacity="1.000000" fill-rule="nonzero"/>
		<path id="Vector" d="M279.33 212.02C279.33 212.02 237.04 243.74 235.91 250.44C234.79 257.13 242.53 307.68 242.53 307.68L249.14 309.95C249.14 309.95 252.76 264.84 256.25 256.25C259.87 247.66 295.3 227.31 296.05 217.08C296.92 206.72 288.06 206.72 279.33 212.02Z" fill="#263238" fill-opacity="1.000000" fill-rule="nonzero"/>
		<path id="Vector" d="M242.53 307.68C242.53 307.68 239.78 308.56 236.16 308.82C232.55 309.07 227.68 307.17 227.68 308.56C227.68 309.95 233.67 315.26 236.79 315.51C239.78 315.76 243.65 316.02 243.65 316.02L243.77 318.17L247.77 319.3L249.14 309.83L242.53 307.68Z" fill="#263238" fill-opacity="1.000000" fill-rule="nonzero"/>
		<path id="Vector" d="M243.8 318.2L230.77 311.52L228.91 315.25L241.94 321.92L243.8 318.2Z" fill="#FFFFFF" fill-opacity="1.000000" fill-rule="nonzero"/>
		<path id="Vector" d="M243.8 318.2L241.94 321.92L228.91 315.25L230.77 311.52L243.8 318.2Z" stroke="#263238" stroke-opacity="1.000000" stroke-width="1.000000" stroke-linejoin="round"/>
		<path id="Vector" d="M236.29 316.65L253.01 328.27L254.63 324.23L236.79 315.51L236.29 316.65Z" fill="#FFFFFF" fill-opacity="1.000000" fill-rule="nonzero"/>
		<path id="Vector" d="M253.01 328.27L254.63 324.23L236.79 315.51L236.29 316.65L253.01 328.27Z" stroke="#263238" stroke-opacity="1.000000" stroke-width="1.000000" stroke-linejoin="round"/>
		<path id="Vector" d="M323.37 323.85L289.94 238.69C289.81 238.43 289.69 238.31 289.56 238.05L291.31 233.38C291.68 232.49 291.18 231.61 290.31 231.23C289.44 230.85 288.56 231.36 288.19 232.24L284.32 242.6L203.85 242.6C205.35 236.66 205.97 233 206.1 232.87C206.22 231.99 205.72 231.1 204.85 230.85C203.98 230.73 203.1 231.23 202.85 232.12C202.73 232.62 191.38 288.85 169.29 325.87C168.79 326.63 169.04 327.64 169.79 328.15C170.04 328.27 170.29 328.4 170.67 328.4C171.16 328.4 171.79 328.15 172.04 327.64C183.77 307.93 192.5 283.04 198.11 263.71L252.76 329.16C252.88 329.41 253.01 329.66 253.13 329.92C253.76 330.8 254.75 331.31 255.75 331.31L255.88 331.31L320.38 328.53C321.37 328.53 322.37 327.9 323 327.01C323.74 326 323.74 324.86 323.37 323.85ZM202.98 245.76L283.07 245.76L253.63 324.74L199.36 259.66C200.86 254.48 201.98 249.81 202.98 245.76ZM255.88 327.9L287.81 242.48L320.25 325.12L255.88 327.9Z" fill="#FFFFFF" fill-opacity="1.000000" fill-rule="nonzero"/>
		<path id="Vector" d="M289.94 238.69C289.81 238.43 289.69 238.31 289.56 238.05L291.31 233.38C291.68 232.49 291.18 231.61 290.31 231.23C289.44 230.85 288.56 231.36 288.19 232.24L284.32 242.6L203.85 242.6C205.35 236.66 205.97 233 206.1 232.87C206.22 231.99 205.72 231.1 204.85 230.85C203.98 230.73 203.1 231.23 202.85 232.12C202.73 232.62 191.38 288.85 169.29 325.87C168.79 326.63 169.04 327.64 169.79 328.15C170.04 328.27 170.29 328.4 170.67 328.4C171.16 328.4 171.79 328.15 172.04 327.64C183.77 307.93 192.5 283.04 198.11 263.71L252.76 329.16C252.88 329.41 253.01 329.66 253.13 329.92C253.76 330.8 254.75 331.31 255.75 331.31L255.88 331.31L320.38 328.53C321.37 328.53 322.37 327.9 323 327.01C323.74 326 323.74 324.86 323.37 323.85L289.94 238.69ZM283.07 245.76L253.63 324.74L199.36 259.66C200.86 254.48 201.98 249.81 202.98 245.76L283.07 245.76ZM287.81 242.48L320.25 325.12L255.88 327.9L287.81 242.48Z" stroke="#263238" stroke-opacity="1.000000" stroke-width="1.000000" stroke-linejoin="round"/>
		<path id="Vector" d="M208.22 232.37C208.22 230.22 206.47 228.45 204.35 228.45C202.23 228.45 200.48 230.22 200.48 232.37C200.48 234.52 202.23 236.29 204.35 236.29C206.6 236.16 208.22 234.52 208.22 232.37Z" fill="#FFFFFF" fill-opacity="1.000000" fill-rule="nonzero"/>
		<path id="Vector" d="M204.35 228.45C202.23 228.45 200.48 230.22 200.48 232.37C200.48 234.52 202.23 236.29 204.35 236.29C206.6 236.16 208.22 234.52 208.22 232.37C208.22 230.22 206.47 228.45 204.35 228.45Z" stroke="#263238" stroke-opacity="1.000000" stroke-width="1.000000" stroke-linejoin="round"/>
		<path id="Vector" d="M176.16 326.63C176.16 323.6 173.78 321.07 170.67 321.07C167.55 321.07 165.18 323.47 165.18 326.63C165.18 329.66 167.55 332.19 170.67 332.19C173.78 332.19 176.16 329.66 176.16 326.63Z" fill="#263238" fill-opacity="1.000000" fill-rule="nonzero"/>
		<path id="Vector" d="M327.24 326.63C327.24 323.6 324.87 321.07 321.75 321.07C318.75 321.07 316.26 323.47 316.26 326.63C316.26 329.66 318.63 332.19 321.75 332.19C324.87 332.07 327.24 329.66 327.24 326.63Z" fill="#263238" fill-opacity="1.000000" fill-rule="nonzero"/>
		<path id="Vector" d="M266.11 326.63C266.11 320.31 261.12 315.26 254.88 315.26C248.64 315.26 243.65 320.31 243.65 326.63C243.65 332.95 248.64 338 254.88 338C261.12 338 266.11 332.82 266.11 326.63Z" fill="#263238" fill-opacity="1.000000" fill-rule="nonzero"/>
		<path id="Vector" d="M271.97 328.78L254.63 324.1C253.26 323.73 251.88 324.61 251.51 325.87C251.14 327.39 252.13 328.91 253.63 329.03L273.09 331.69L271.97 328.78Z" fill="#FFFFFF" fill-opacity="1.000000" fill-rule="nonzero"/>
		<path id="Vector" d="M254.63 324.1C253.26 323.73 251.88 324.61 251.51 325.87C251.14 327.39 252.13 328.91 253.63 329.03L273.09 331.69L271.97 328.78L254.63 324.1Z" stroke="#263238" stroke-opacity="1.000000" stroke-width="1.000000" stroke-linejoin="round"/>
		<path id="Vector" d="M279.32 321.81L269.5 332.75L272.55 335.56L282.37 324.62L279.32 321.81Z" fill="#FFFFFF" fill-opacity="1.000000" fill-rule="nonzero"/>
		<path id="Vector" d="M279.32 321.81L282.37 324.62L272.55 335.56L269.5 332.75L279.32 321.81Z" stroke="#263238" stroke-opacity="1.000000" stroke-width="1.000000" stroke-linejoin="round"/>
		<path id="Vector" d="M279.08 210.89C279.08 210.89 245.9 241.97 244.27 250.56C242.65 259.16 276.34 314.88 276.34 314.88L282.95 312.61C282.95 312.61 263.99 263.71 266.48 260.04C268.98 256.38 313.26 226.05 319.88 215.82C326.49 205.58 322.75 195.22 317.76 190.54C312.77 185.87 279.08 210.89 279.08 210.89Z" fill="#263238" fill-opacity="1.000000" fill-rule="nonzero"/>
		<path id="Vector" d="M257.12 250.56L266.35 260.04L261.74 248.54" stroke="#FFFFFF" stroke-opacity="1.000000" stroke-width="0.750000" stroke-linejoin="round" stroke-linecap="round"/>
		<path id="Vector" d="M250.64 269.26C250.64 269.26 243.9 252.59 245.9 247.41C247.89 242.22 280.95 216.95 280.95 216.95C280.95 216.95 297.42 211.27 308.65 213.54" stroke="#FFFFFF" stroke-opacity="1.000000" stroke-width="0.750000" stroke-linejoin="round" stroke-linecap="round"/>
		<path id="Vector" d="M299.54 210.51C299.54 210.51 305.28 207.73 313.76 210.89" stroke="#FFFFFF" stroke-opacity="1.000000" stroke-width="0.750000" stroke-linejoin="round" stroke-linecap="round"/>
		<path id="Vector" d="M276.34 314.88C276.34 314.88 273.34 318.17 270.35 321.32C267.35 324.36 263.49 325.24 264.86 326C266.23 326.88 268.48 327.64 272.59 326.25C276.71 324.86 281.95 320.19 281.95 320.19L282.82 321.58L287.44 319.05L283.07 312.61L276.34 314.88Z" fill="#263238" fill-opacity="1.000000" fill-rule="nonzero"/>
		<path id="Vector" d="M259.49 100.2C255.38 95.77 248.02 93.12 242.03 94.13C236.16 95.27 234.54 103.23 233.42 108.16L232.42 112.58L232.55 115.99L230.67 123.19C230.43 124.08 231.05 125.09 232.05 125.22L234.17 125.47C234.54 127.87 236.91 132.55 237.16 134.19C238.41 140.5 242.53 140.13 245.15 139.12C246.27 138.74 248.14 137.47 249.89 135.96L256.13 141.26L267.23 129.01L262.49 122.06C262.49 122.06 263.86 104.87 259.49 100.2Z" fill="#FFFFFF" fill-opacity="1.000000" fill-rule="nonzero"/>
		<path id="Vector" d="M242.03 94.13C236.16 95.27 234.54 103.23 233.42 108.16L232.42 112.58L232.55 115.99L230.67 123.19C230.43 124.08 231.05 125.09 232.05 125.22L234.17 125.47C234.54 127.87 236.91 132.55 237.16 134.19C238.41 140.5 242.53 140.13 245.15 139.12C246.27 138.74 248.14 137.47 249.89 135.96L256.13 141.26L267.23 129.01L262.49 122.06C262.49 122.06 263.86 104.87 259.49 100.2C255.38 95.77 248.02 93.12 242.03 94.13Z" stroke="#263238" stroke-opacity="1.000000" stroke-width="1.000000" stroke-linejoin="round"/>
		<path id="Vector" d="M236.79 117.76C236.91 118.77 236.79 119.66 236.41 119.66C236.04 119.78 235.54 119.03 235.42 118.01C235.29 117 235.42 116.12 235.79 116.12C236.16 115.99 236.66 116.75 236.79 117.76Z" fill="#263238" fill-opacity="1.000000" fill-rule="nonzero"/>
		<path id="Vector" d="M233.79 113.84C233.79 113.84 236.41 111.57 238.41 114.48" stroke="#263238" stroke-opacity="1.000000" stroke-width="1.000000" stroke-linejoin="round" stroke-linecap="round"/>
		<path id="Vector" d="M243.15 106.77C243.15 106.77 239.78 110.81 241.03 112.2C242.28 113.72 246.39 117 246.39 117C246.39 117 249.26 111.7 253.51 113.84C257.62 115.99 254.38 121.05 255.75 123.07C257.25 125.22 262.24 122.06 262.61 120.92C262.99 119.91 270.47 104.49 270.97 98.81C271.35 93.12 256 87.44 249.39 86.17C242.78 84.91 237.79 87.81 239.03 86.55C240.28 85.29 242.4 81.88 238.41 81.5C234.42 81.12 229.3 87.18 229.3 90.72C229.3 94.26 232.8 94.51 232.8 94.51C232.8 94.51 222.81 91.98 225.56 97.92C228.3 103.86 232.8 103.61 237.04 103.86C241.03 104.24 243.15 106.77 243.15 106.77Z" fill="#263238" fill-opacity="1.000000" fill-rule="nonzero"/>
		<path id="Vector" d="M250.76 114.6L250.64 114.6C250.01 114.48 249.51 113.84 249.51 113.21L251.01 100.2C251.14 99.57 251.63 99.06 252.38 99.06C253.01 99.19 253.51 99.82 253.51 100.45L252.01 113.47C252.01 114.1 251.38 114.6 250.76 114.6Z" fill="#FFFFFF" fill-opacity="1.000000" fill-rule="nonzero"/>
		<path id="Vector" d="M250.64 114.6C250.01 114.48 249.51 113.84 249.51 113.21L251.01 100.2C251.14 99.57 251.63 99.06 252.38 99.06C253.01 99.19 253.51 99.82 253.51 100.45L252.01 113.47C252.01 114.1 251.38 114.6 250.76 114.6L250.64 114.6Z" stroke="#263238" stroke-opacity="1.000000" stroke-width="1.000000"/>
		<path id="Vector" d="M250.26 126.86C247.14 126.86 244.52 124.21 244.52 121.05L244.52 115.61C244.52 112.45 247.14 109.8 250.26 109.8C253.38 109.8 256 112.45 256 115.61L256 121.05C256 124.21 253.38 126.86 250.26 126.86Z" fill="#FFFFFF" fill-opacity="1.000000" fill-rule="nonzero"/>
		<path id="Vector" d="M244.52 121.05L244.52 115.61C244.52 112.45 247.14 109.8 250.26 109.8C253.38 109.8 256 112.45 256 115.61L256 121.05C256 124.21 253.38 126.86 250.26 126.86C247.14 126.86 244.52 124.21 244.52 121.05Z" stroke="#263238" stroke-opacity="1.000000" stroke-width="1.000000"/>
		<path id="Vector" d="M251.63 87.31L249.76 100.7C249.51 102.09 250.51 103.48 252.01 103.61L252.13 103.61C253.51 103.74 254.75 102.72 255 101.33L256.62 87.81C256.75 86.42 255.88 85.16 254.38 84.91C253.13 85.03 251.88 85.92 251.63 87.31Z" fill="#FFFFFF" fill-opacity="1.000000" fill-rule="nonzero"/>
		<path id="Vector" d="M249.76 100.7C249.51 102.09 250.51 103.48 252.01 103.61L252.13 103.61C253.51 103.74 254.75 102.72 255 101.33L256.62 87.81C256.75 86.42 255.88 85.16 254.38 84.91C253.13 85.03 251.88 85.92 251.63 87.31L249.76 100.7Z" stroke="#263238" stroke-opacity="1.000000" stroke-width="1.000000"/>
		<path id="Vector" d="M268.85 124.08C268.85 124.08 248.89 142.4 249.14 145.43C249.39 148.47 248.76 162.11 256.25 177.4C263.61 192.69 272.59 205.58 275.84 211.39C279.08 217.21 288.69 212.91 288.69 212.91C288.69 212.91 308.9 205.71 315.51 199.39C322.12 192.94 315.51 181.32 315.51 181.32C315.51 181.32 291.18 146.07 283.2 137.35C275.21 128.75 268.85 124.08 268.85 124.08Z" fill="#BAEF00" fill-opacity="1.000000" fill-rule="nonzero"/>
		<path id="Vector" d="M249.14 145.43C249.39 148.47 248.76 162.11 256.25 177.4C263.61 192.69 272.59 205.58 275.84 211.39C279.08 217.21 288.69 212.91 288.69 212.91C288.69 212.91 308.9 205.71 315.51 199.39C322.12 192.94 315.51 181.32 315.51 181.32C315.51 181.32 291.18 146.07 283.2 137.35C275.21 128.75 268.85 124.08 268.85 124.08C268.85 124.08 248.89 142.4 249.14 145.43Z" stroke="#263238" stroke-opacity="1.000000" stroke-width="1.000000" stroke-linejoin="round"/>
		<path id="Vector" d="M248.76 148.09C248.76 148.09 252.88 144.42 256.13 141.39C259.37 138.36 276.09 134.95 280.2 135.83C284.32 136.72 285.44 140.5 286.19 140.25C287.07 140 287.44 134.57 283.07 127.24C278.71 119.91 272.09 116.75 268.48 119.03C264.98 121.3 256.25 132.55 252.51 137.09C248.76 141.77 247.27 144.42 248.76 148.09Z" fill="#BAEF00" fill-opacity="1.000000" fill-rule="nonzero"/>
		<path id="Vector" d="M256.13 141.39C259.37 138.36 276.09 134.95 280.2 135.83C284.32 136.72 285.44 140.5 286.19 140.25C287.07 140 287.44 134.57 283.07 127.24C278.71 119.91 272.09 116.75 268.48 119.03C264.98 121.3 256.25 132.55 252.51 137.09C248.76 141.77 247.27 144.42 248.76 148.09C248.76 148.09 252.88 144.42 256.13 141.39Z" stroke="#263238" stroke-opacity="1.000000" stroke-width="1.000000" stroke-linejoin="round"/>
		<path id="Vector" d="M267.1 172.22C267.1 172.22 280.45 173.36 289.81 171.46" stroke="#263238" stroke-opacity="1.000000" stroke-width="1.000000" stroke-linejoin="round" stroke-linecap="round"/>
		<path id="Vector" d="M261.86 173.36C261.86 173.36 274.47 181.32 287.56 182.08" stroke="#263238" stroke-opacity="1.000000" stroke-width="1.000000" stroke-linejoin="round" stroke-linecap="round"/>
		<path id="Vector" d="M273.59 140C273.59 140 266.73 137.47 261.24 140.5C255.75 143.54 233.67 175.76 233.67 175.76L244.9 187.89L279.33 165.78M273.74 139.54L273.76 139.53C274.03 139.63 274.16 139.91 274.06 140.17C273.96 140.44 273.68 140.57 273.42 140.47L273.41 140.44L273.74 139.54ZM279.05 165.38L279.06 165.36C279.3 165.21 279.6 165.27 279.75 165.51C279.9 165.74 279.84 166.05 279.6 166.2L279.57 166.19L279.05 165.38Z" fill="#BAEF00" fill-opacity="1.000000" fill-rule="nonzero"/>
		<path id="Vector" d="M273.59 140C273.59 140 266.73 137.47 261.24 140.5C255.75 143.54 233.67 175.76 233.67 175.76L244.9 187.89L279.33 165.78" stroke="#263238" stroke-opacity="1.000000" stroke-width="1.000000" stroke-linejoin="round" stroke-linecap="round"/>
		<path id="Vector" d="M233.67 172.85C233.67 172.85 229.93 176.27 230.05 177.4C230.18 178.54 240.66 189.91 241.9 190.67C243.15 191.43 247.27 188.27 247.14 186.75C247.02 185.24 235.04 172.98 235.04 172.98C235.04 172.98 234.42 171.84 233.67 172.85Z" fill="#C6FF00" fill-opacity="1.000000" fill-rule="nonzero"/>
		<path id="Vector" d="M230.05 177.4C230.18 178.54 240.66 189.91 241.9 190.67C243.15 191.43 247.27 188.27 247.14 186.75C247.02 185.24 235.04 172.98 235.04 172.98C235.04 172.98 234.42 171.84 233.67 172.85C233.67 172.85 229.93 176.27 230.05 177.4Z" stroke="#263238" stroke-opacity="1.000000" stroke-width="1.000000" stroke-linejoin="round"/>
		<path id="Vector" d="M2.61 378.31L490.92 378.31C492.42 378.31 493.54 377.05 493.54 375.66C493.54 374.14 492.42 373.01 490.92 373.01L2.61 373.01C1.12 373.01 0 374.27 0 375.66C0 377.18 1.12 378.31 2.61 378.31Z" fill="#263238" fill-opacity="1.000000" fill-rule="nonzero"/>
	</g>
</svg>
